<svg xmlns="http://www.w3.org/2000/svg" viewBox="0 0 280.3 83.8"><defs><style>.cls-1{fill:#fefefe;}.cls-2{fill:#3288ab;}.cls-3{fill:#5eb1a3;}.cls-4{fill:#1c867a;}.cls-5{fill:#156387;}.cls-6{fill:#237799;}.cls-7{fill:#fff;}.cls-8{fill:#222d53;}.cls-9{fill:#349488;}</style></defs><g id="Capa_2" data-name="Capa 2"><g id="Capa_1-2" data-name="Capa 1"><path class="cls-1" d="M.1,50.8c0-9.31,0-18.63-.1-27.94a2.93,2.93,0,0,1,1.72-2.78Q19.36,10.27,37,.41a2.53,2.53,0,0,1,2.77,0l35,19.53a3,3,0,0,1,1.73,2.78c0,7.4,0,14.8-.07,22.19-1.54,1.34-3.32.81-5,.52a30.14,30.14,0,0,1-11.14-4.88,23.38,23.38,0,0,0-2.84-1.73,18,18,0,0,1-1.08,15.93c-3.82,7-10.11,9.47-17.61,9.82H38c-10.08-1.54-16.37-7.49-18-17a18.37,18.37,0,0,1,1.2-9.3c.43-1.23,1.07-2.39,1.6-3.93-9.64.92-16.3,5.54-20.5,13.85C1.79,49.21,1.8,50.76.1,50.8Z"/><path class="cls-2" d="M.1,50.8c1.58-3.27,3.11-6.54,5.61-9.28,4.94-5.43,11.12-7.86,18.71-8.08-1.5,3.07-3,5.87-3.46,9.08A18,18,0,0,0,32.84,62.38c1.71.6,3.48,1,5.22,1.57a4.36,4.36,0,0,1,.53,4.57c-1.18,1.45-2.44.55-3.56,0-4.28-2.16-8.58-4.28-12.88-6.4C15.79,59,9.35,56.18,2.37,54.77A3.57,3.57,0,0,1,.1,53.38Z"/><path class="cls-3" d="M38.55,63.83A49.88,49.88,0,0,0,44,63.1c10.76-2.64,16.37-12.94,12.87-23.51-.25-.77-.55-1.51-1-2.62,6.75,3.61,12.53,8.73,20.54,8v.59a43.48,43.48,0,0,0-.1,5.23,3.6,3.6,0,0,1-.68,2.58C66.53,59.61,56.81,64.47,45.7,66a19,19,0,0,1-5,.16C39.37,66,38.31,65.51,38.55,63.83Z"/><path class="cls-4" d="M75.09,53c1.33-.81.91-2.14,1-3.32.11-1.37-.35-2.79.32-4.11,0,5.15,0,10.29.1,15.43A2.49,2.49,0,0,1,75,63.29L39.75,83.38a2.11,2.11,0,0,1-1.65.38,3.65,3.65,0,0,1-.94-2c0-4-.5-7.93.29-11.86a2.82,2.82,0,0,1,3-1.25C50.72,70,59.18,65.91,66.92,59.86A70.75,70.75,0,0,0,75.09,53Z"/><path class="cls-5" d="M.1,53.38a79.2,79.2,0,0,1,22.45,8,2.86,2.86,0,0,1,.37,3.27c-1.09,2.33-2.38,4.56-2.85,7.14a1.48,1.48,0,0,1-1,1Q10.18,68,1.24,63.12A2.51,2.51,0,0,1,.06,60.58C.1,58.18.09,55.78.1,53.38Z"/><path class="cls-6" d="M19.08,72.86c.51-2.76,1-5.51,2.8-7.86a4.8,4.8,0,0,0,.67-3.6l15.5,7.48a.35.35,0,0,1,.19.31c0,.12,0,.19-.07.19q0,7.19-.07,14.38C31.75,80.14,25.25,76.8,19.08,72.86Z"/><path class="cls-7" d="M223.83,45c1.42-2.67,2.89-5.07,4-7.64.74-1.71,2-1.5,3.26-1.42,1.7.1,1,1.5,1,2.3.11,3.74,0,7.48.08,11.22,0,1,0,1.76-1.4,1.74s-1.53-.6-1.51-1.69A47.54,47.54,0,0,0,228.8,41c-1.14,2-2.31,4.09-3.38,6.18a1.84,1.84,0,0,1-1.88,1.24c-1,0-1.19-.65-1.54-1.32a32,32,0,0,0-3.62-5.73v8.06c0,1.19-.18,1.83-1.61,1.82s-1.31-.87-1.31-1.79V38c0-.71-.53-1.92.73-2s2.49-.65,3.28.92C220.85,39.57,222.3,42.17,223.83,45Z"/><path class="cls-7" d="M134.85,45.16c2.92-1.4,4-3.1,3.59-5.46s-2.18-3.65-5.16-3.77c-2-.08-4,0-6,0-.72,0-1.32,0-1.31,1V50.1c0,1.14.71,1.1,1.49,1.12s1.5-.08,1.46-1.17.08-2,0-3c-.14-1.38.49-1.65,1.73-1.64,2.37,0,2.54,2.17,3.42,3.49,1.23,1.83,2.5,2.93,5,2.09Zm-3.64-2c-2.53.37-2.14-1.28-2.31-2.88-.28-2.64,1.49-1.93,2.84-2,1.85,0,3.86.06,3.7,2.52s-2.44,2.14-4.23,2.4Z"/><path class="cls-7" d="M195.9,43.46v6.23c0,1.19-.4,1.58-1.6,1.58s-1.49-.52-1.55-1.64c-.3-5.22-.33-5.14-5.58-5.08-1.59,0-2,.57-1.91,2,.09,1,0,2,0,3s0,1.73-1.4,1.73-1.74-.44-1.72-1.73V37.33c0-1.28.54-1.5,1.65-1.5s1.42.31,1.47,1.41c.08,1.62-.8,3.89.48,4.71s3.39.15,5.12.3,2.06-.54,1.92-2c-.08-.9.08-1.82.05-2.74,0-1.1.24-1.66,1.52-1.62s1.73.38,1.59,1.58v6Z"/><path class="cls-7" d="M110.68,43.34V37.6c0-1.25.27-1.8,1.66-1.74,2.74.1,5.49.06,8.24,0,.83,0,1.44.06,1.43,1.17s-.46,1.28-1.37,1.26c-1.75,0-3.5.06-5.24,0-1.33-.08-1.76.39-1.68,1.7s-.07,2.35,1.77,2.18c1.4-.14,2.83,0,4.24,0,.74,0,1.31,0,1.3,1s-.17,1.42-1.21,1.39c-1.25-.05-2.5.06-3.75,0-1.49-.07-2.46,0-2.42,2.06s.68,2.43,2.48,2.27c1.56-.15,3.16,0,4.74,0,.71,0,1.32,0,1.29,1S122,51.32,121,51.31q-4.49-.06-9,0c-1.24,0-1.25-.76-1.25-1.66V43.41Z"/><path class="cls-7" d="M269.6,37c-.48-1.15-1.31-1.08-2.22-1.06s-1.59-.16-2,.94c-1.92,4.73-3.94,9.42-5.92,14.15,2,.56,3.32.18,3.73-1.86a2.08,2.08,0,0,1,2.22-1.93,2.14,2.14,0,0,1,.43.07,13.51,13.51,0,0,0,3.24,0c1.38-.16,2.21.25,2.47,1.69.42,2.28,1.91,2.56,4.06,2C273.55,46.28,271.53,41.67,269.6,37Zm-4.53,7.81L267.24,39c1.3,1.76,1.52,3.85,2.68,5.79Z"/><path class="cls-7" d="M200.3,43.55V37.82c-.05-1.3.23-2,1.76-1.91,2.66.11,5.32,0,8,0,.81,0,1.46,0,1.46,1.14s-.46,1.28-1.37,1.26h-4.73c-1.31-.06-2.19,0-2.1,1.78.07,1.51.28,2.34,2.05,2.14a38.12,38.12,0,0,1,4,0c.83,0,1.16.29,1.16,1.17s-.43,1.13-1.22,1.12a29,29,0,0,1-3.49,0c-2.22-.28-2.63.77-2.52,2.72.08,1.3.46,1.72,1.75,1.66,1.74-.1,3.49,0,5.24,0,.83,0,1.43.05,1.4,1.15s-.43,1.28-1.36,1.27c-2.83,0-5.66-.08-8.48,0-1.29,0-1.52-.62-1.5-1.7v-6Z"/><path class="cls-7" d="M100.35,51.44a15.63,15.63,0,0,1-4.18-.64c-.65-.14-1.36-.33-1-1.31.29-.71.55-1.41,1.58-1.06a13.29,13.29,0,0,0,4.43.52c1.22,0,2.49-.08,2.78-1.51.34-1.68-1.1-2-2.25-2.45s-2.4-.69-3.55-1.15c-1.86-.76-3-2.07-2.78-4.22S97,36.53,98.73,36a12.31,12.31,0,0,1,6.65.15c.59.17,1.44.22.92,1.26-.32.64-.44,1.38-1.57,1a8.65,8.65,0,0,0-4.43-.3c-.92.22-1.84.46-1.9,1.62s.73,1.4,1.54,1.69c1.17.42,2.34.83,3.52,1.22,2.26.74,3.87,2,3.61,4.65s-2.24,3.47-4.49,3.88A16.55,16.55,0,0,1,100.35,51.44Z"/><path class="cls-7" d="M246.68,51.5a12.25,12.25,0,0,1-3.94-.62c-.67-.26-1.55-.31-1.07-1.47.34-.82.69-1.18,1.66-.86a12.15,12.15,0,0,0,5.19.38,1.85,1.85,0,0,0,1.9-1.64,1.79,1.79,0,0,0-1.37-1.86c-1.48-.56-3-1-4.48-1.54a3.89,3.89,0,0,1-2.81-4c0-2.08,1.33-3.19,3.1-3.77a11.12,11.12,0,0,1,6.87.11c.6.19,1.4.22.93,1.28-.3.67-.52,1.15-1.42.92a10.2,10.2,0,0,0-4.69-.35c-.85.18-1.64.51-1.77,1.51a1.88,1.88,0,0,0,1.49,2c1.41.48,2.87.87,4.24,1.45,1.9.81,3.16,2.14,3,4.42s-1.82,3.24-3.81,3.68A25.4,25.4,0,0,1,246.68,51.5Z"/><path class="cls-7" d="M140.12,36.12c2.14-.63,3.34,0,4.06,2.09,1.07,3.09,2.4,6.1,3.84,9.67,1.41-3.5,2.62-6.45,3.78-9.42s.31-2.66,4.11-2.37c-2,4.79-4,9.5-5.9,14.22-.47,1.16-1.42.9-2.31,1a1.59,1.59,0,0,1-1.95-1.08C143.92,45.48,142,40.81,140.12,36.12Z"/><path class="cls-7" d="M174.37,51.43c-5.69,0-8.61-2.62-8.79-7.38-.19-5.09,2.33-7.9,7.48-8.35a13.08,13.08,0,0,1,4.45.44c1,.26,1.08.77.75,1.66s-.51,1.16-1.38.73a6.12,6.12,0,0,0-1.46-.36c-2.16-.4-4.31-.24-5.66,1.65a6.53,6.53,0,0,0-.44,6.66c1,2.21,3,2.65,5.27,2.48a6.73,6.73,0,0,0,2-.24c1-.39,1.41-.26,1.73.85.42,1.42-.57,1.33-1.31,1.48C175.92,51.26,174.85,51.37,174.37,51.43Z"/><path class="cls-7" d="M158.91,43.41v-6c0-.9,0-1.6,1.28-1.57s1.65.3,1.64,1.54q-.06,6.24,0,12.48c0,1.13-.46,1.41-1.49,1.41s-1.56-.24-1.53-1.37V43.4Z"/><path class="cls-7" d="M258.34,50.14c-.09,1-.73,1.24-1.55,1.2a1.23,1.23,0,0,1-1.31-1.16,1.43,1.43,0,0,1,0-.29c0-1,.73-1.18,1.54-1.18C258,48.71,258.22,49.4,258.34,50.14Z"/><path class="cls-7" d="M278.72,48.69c1,.11,1.66.43,1.57,1.38A1.26,1.26,0,0,1,279,51.28a.91.91,0,0,1-.23,0,1.25,1.25,0,0,1-1.2-1.52C277.6,48.88,278.21,48.72,278.72,48.69Z"/><path class="cls-8" d="M39.28,12.24c3.25,9.64,10,17.44,13.83,26.73,3.09,7.46.87,14.55-5.78,18.27-7.21,4-15.38,2.41-19.93-4.15-3.64-5.25-3-10.71-.08-16,2.6-4.74,5.45-9.33,8.11-14A27.32,27.32,0,0,0,39.28,12.24Z"/><path class="cls-9" d="M38.17,69.38l-.12-.5V64l.49-.12C39,65.18,40,65.39,41.3,65.39c7.45,0,14.33-2.25,21-5.38A101.11,101.11,0,0,0,75.12,53c-2,3.59-5.3,5.92-8.42,8.28C61,65.52,54.84,68.74,47.6,69.68,44.37,70.1,41.3,69.37,38.17,69.38Z"/></g></g></svg>